{"title":"Disney Parks Christmas Day Parade 2013 HDTV 720p x264 AAC - PRiS","uid":9405724,"size":561095806,"categoryP":"video","categoryS":"hd___tv_shows","magnet":"?xt=urn:btih:046555d0dc0d00393ad68389fa6d08f7df2c2c18&amp;dn=Disney+Parks+Christmas+Day+Parade+2013+HDTV+720p+x264+AAC+-+PRiS&amp;tr=udp%3A%2F%2Ftracker.openbittorrent.com%3A80&amp;tr=udp%3A%2F%2Fopen.demonii.com%3A1337&amp;tr=udp%3A%2F%2Ftracker.coppersurfer.tk%3A6969&amp;tr=udp%3A%2F%2Fexodus.desync.com%3A6969","seeders":1,"leechers":0,"uploader":"Vitamin_X","files":-1,"time":1388151591,"description":"_______ Visit us at our Semi Public Bittorrent Community ________\n  &lt;a href=&quot;\nhttp://p2pdl.com&quot; rel=&quot;nofollow&quot; target=&quot;_NEW&quot;&gt;\nhttp://p2pdl.com&lt;/a&gt;  _____________________________ &lt;a href=&quot; http://p2pdl.com&quot; rel=&quot;nofollow&quot; target=&quot;_NEW&quot;&gt; http://p2pdl.com&lt;/a&gt;\n\n\nDisney Parks Christmas Day Parade 2013 HDTV 720p x264 AAC - PRiSTiNE\n\n\n\nGeneral\nFormat                         : MPEG-4\nFile size                      : 525 MiB\nDuration                       : 1h 21mn\nOverall bit rate mode          : Variable\nOverall bit rate               : 902 Kbps\n\nVideo\nFormat                         : AVC\nBit rate                       : 819 Kbps\nWidth                          : 1 280 pixels\nHeight                         : 720 pixels\nDisplay aspect ratio           : 16:9\nFrame rate mode                : Constant\nFrame rate                     : 29.970 fps\nBit depth                      : 10 bits\nStream size                    : 477 MiB (91%)\nWriting library                : x264 core 140 r2377 1ca7bb9\n\nAudio\nFormat                         : AAC\nBit rate                       : 80.0 Kbps\nChannel count                  : 2 channels\nChannel positions              : Front: L R\nSampling rate                  : 48.0 KHz / 24.0 KHz\nCompression mode               : Lossy\nStream size                    : 46.6 MiB (9%)\n\n\nSubtitle                       : No\n\nSource                         : 720p.HDTV.x264-2HD\n\n &lt;a href=&quot;\nhttp://someimage.com/uXjKZOd&quot; rel=&quot;nofollow&quot; target=&quot;_NEW&quot;&gt;\nhttp://someimage.com/uXjKZOd&lt;/a&gt; &lt;a href=&quot;\nhttp://someimage.com/3sp8k9C&quot; rel=&quot;nofollow&quot; target=&quot;_NEW&quot;&gt;\nhttp://someimage.com/3sp8k9C&lt;/a&gt; &lt;a href=&quot;\nhttp://someimage.com/QAPYMrJ&quot; rel=&quot;nofollow&quot; target=&quot;_NEW&quot;&gt;\nhttp://someimage.com/QAPYMrJ&lt;/a&gt; &lt;a href=&quot;\nhttp://someimage.com/EJ6evum&quot; rel=&quot;nofollow&quot; target=&quot;_NEW&quot;&gt;\nhttp://someimage.com/EJ6evum&lt;/a&gt; &lt;a href=&quot;\nhttp://someimage.com/1GtmuDX&quot; rel=&quot;nofollow&quot; target=&quot;_NEW&quot;&gt;\nhttp://someimage.com/1GtmuDX&lt;/a&gt; &lt;a href=&quot;\nhttp://someimage.com/jh0czgb&quot; rel=&quot;nofollow&quot; target=&quot;_NEW&quot;&gt;\nhttp://someimage.com/jh0czgb&lt;/a&gt;\n\n----------------------------------------------------------------------------------------------------\n\n\nEncoded using revolutionary 10bit encoding, which enables us to provide you more crispier \nand sharper images at small sizes, just make sure you follow our instructions without a fault.\nRecommend to you to use latest version of VLC player. Install K-Lite Codec Pack or shark007 codecs\nin case of any kind of problem in playback (For non-VLC Media Player users). Alternatively, install\nCore AVC codecs, the fastest decoder that there is coupled with Community Center Codec Pack and play\non Windows Media Player Classic. Check sample to be sure.\nEnjoy!\n\nEncoder Notes:Looking For Early Access To Anything You Can Provide DVDScr, R5, DVDR, BluRay, Direct\nAudio, Music Releases and Seedboxes. We require dedicated servers, so as to do more \nand fast releases of movies.\nIf You Got anything to offer please contact us at &quot;&lt;a class=&quot;__cf_email__&quot; href=&quot;/cdn-cgi/l/email-protection&quot; data-cfemail=&quot;1f6f6d785f776a6c77317c7072&quot;&gt;[email&amp;#160;protected]&lt;/a&gt;&lt;script cf-hash='f9e31' type=&quot;text/javascript&quot;&gt;\n/* &lt;![CDATA[ */!function(){try{var t=&quot;currentScript&quot;in document?document.currentScript:function(){for(var t=document.getElementsByTagName(&quot;script&quot;),e=t.length;e--;)if(t[e].getAttribute(&quot;cf-hash&quot;))return t[e]}();if(t&amp;&amp;t.previousSibling){var e,r,n,i,c=t.previousSibling,a=c.getAttribute(&quot;data-cfemail&quot;);if(a){for(e=&quot;&quot;,r=parseInt(a.substr(0,2),16),n=2;a.length-n;n+=2)i=parseInt(a.substr(n,2),16)^r,e+=String.fromCharCode(i);e=document.createTextNode(e),c.parentNode.replaceChild(e,c)}}}catch(u){}}();/* ]]&gt; */&lt;/script&gt;&quot;.\n\nFacebook Fan Page:  \nSearch P2PDL on FB and don't forget to hit like!!!\n\nSupport us, please consider a donation via bitcoin.\n\n16aCJG7J5n8eqCHHLPNUZ3ZirwGU34cqXJ\n\nFor more of our team uploads visit @            &lt;a href=&quot;\nhttp://thepiratebay.se/user/ValidusVyto&quot; rel=&quot;nofollow&quot; target=&quot;_NEW&quot;&gt;\nhttp://thepiratebay.se/user/ValidusVyto&lt;/a&gt;\t","torrent":{"xt":"urn:btih:046555d0dc0d00393ad68389fa6d08f7df2c2c18","amp;dn":"Disney+Parks+Christmas+Day+Parade+2013+HDTV+720p+x264+AAC+-+PRiS","amp;tr":["udp%3A%2F%2Ftracker.openbittorrent.com%3A80","udp%3A%2F%2Fopen.demonii.com%3A1337","udp%3A%2F%2Ftracker.coppersurfer.tk%3A6969","udp%3A%2F%2Fexodus.desync.com%3A6969"],"infoHash":"046555d0dc0d00393ad68389fa6d08f7df2c2c18","infoHashBuffer":{"type":"Buffer","data":[4,101,85,208,220,13,0,57,58,214,131,137,250,109,8,247,223,44,44,24]},"announce":[],"urlList":[]}}